<?xml version="1.0" encoding="UTF-8" standalone="no" ?>
<!DOCTYPE svg PUBLIC "-//W3C//DTD SVG 1.1//EN" "http://www.w3.org/Graphics/SVG/1.1/DTD/svg11.dtd">
<svg xmlns="http://www.w3.org/2000/svg" xmlns:xlink="http://www.w3.org/1999/xlink" version="1.1" width="250" height="250" viewBox="0 0 500 500" xml:space="preserve">
<desc>Created with Fabric.js 4.6.0</desc>
<defs>
</defs>
<g transform="matrix(1 0 0 1 250 250)" id="r84uTJR-gQ9lYBWrVAR3W"  >
<path style="stroke: rgb(255,255,255); stroke-width: 1; stroke-dasharray: none; stroke-linecap: butt; stroke-dashoffset: 0; stroke-linejoin: miter; stroke-miterlimit: 4; fill: rgb(248,213,155); fill-rule: nonzero; opacity: 1;" vector-effect="non-scaling-stroke"  transform=" translate(-200, -200)" d="M 200 0 C 310.4 0 400 89.6 400 200 C 400 310.4 310.4 400 200 400 C 89.6 400 0 310.4 0 200 C 0 89.6 89.6 0 200 0 z" stroke-linecap="round" />
</g>
<g transform="matrix(1 0 0 1 250 250)" id="XpplY1fqWUJ1t6qHs0z37"  >
<path style="stroke: rgb(28,227,58); stroke-width: 0; stroke-dasharray: none; stroke-linecap: butt; stroke-dashoffset: 0; stroke-linejoin: miter; stroke-miterlimit: 4; fill: rgb(255,255,255); fill-rule: nonzero; opacity: 1;" vector-effect="non-scaling-stroke"  transform=" translate(-190, -190)" d="M 190 0 C 294.88 0 380 85.12 380 190 C 380 294.88 294.88 380 190 380 C 85.12 380 0 294.88 0 190 C 0 85.12 85.12 0 190 0 z" stroke-linecap="round" />
</g>
<g transform="matrix(0.72 0 0 0.82 249.22 158.32)" id="dCO4ZYvY3tPyPshnGqySU"  >
<path style="stroke: rgb(0,0,0); stroke-width: 1; stroke-dasharray: none; stroke-linecap: butt; stroke-dashoffset: 0; stroke-linejoin: miter; stroke-miterlimit: 4; fill: rgb(255,255,255); fill-rule: nonzero; opacity: 1;" vector-effect="non-scaling-stroke"  transform=" translate(0, 0)" d="M 5.35513 -114.00789 L -24.520860000000003 114.00789 L 24.52085 114.00789 L 5.355119999999999 -111.1894" stroke-linecap="round" />
</g>
<g transform="matrix(1 0 0 1 198.42 250)" id="BlO_k7Mlcy2sfKqXDqrXX"  >
<path style="stroke: rgb(0,0,0); stroke-width: 1; stroke-dasharray: none; stroke-linecap: butt; stroke-dashoffset: 0; stroke-linejoin: miter; stroke-miterlimit: 4; fill: rgb(255,255,255); fill-rule: nonzero; opacity: 1;" vector-effect="non-scaling-stroke"  transform=" translate(0, 0)" d="M 0 0" stroke-linecap="round" />
</g>
<g transform="matrix(0.72 0 0 0.82 252.82 250.5)" id="Fz-eUUVvsLIHnmIOzJAlh"  >
<path style="stroke: rgb(64,34,195); stroke-width: 1; stroke-dasharray: none; stroke-linecap: butt; stroke-dashoffset: 0; stroke-linejoin: miter; stroke-miterlimit: 4; fill: rgb(132,229,183); fill-rule: nonzero; opacity: 1;" vector-effect="non-scaling-stroke"  transform=" translate(0, 0)" d="M 0 -50 C 27.6 -50 50 -27.6 50 0 C 50 27.6 27.6 50 0 50 C -27.6 50 -50 27.6 -50 0 C -50 -27.6 -27.6 -50 0 -50 z" stroke-linecap="round" />
</g>
<g transform="matrix(0.17 0.7 -0.8 0.19 326.62 232.02)" id="jQoSo3zHSCL6ByWOgfQgB"  >
<path style="stroke: rgb(0,0,0); stroke-width: 1; stroke-dasharray: none; stroke-linecap: butt; stroke-dashoffset: 0; stroke-linejoin: miter; stroke-miterlimit: 4; fill: rgb(255,255,255); fill-rule: nonzero; opacity: 1;" vector-effect="non-scaling-stroke"  transform=" translate(0, 0)" d="M 5.35513 -114.00789 L -24.520860000000003 114.00789 L 24.52085 114.00789 L 5.355119999999999 -111.1894" stroke-linecap="round" />
</g>
</svg>